<svg width="36" height="36" viewBox="0 0 36 36" fill="none" xmlns="http://www.w3.org/2000/svg">
<path d="M0 12C0 5.37258 5.37258 0 12 0H24C30.6274 0 36 5.37258 36 12V24C36 30.6274 30.6274 36 24 36H12C5.37258 36 0 30.6274 0 24V12Z" fill="black"/>
<g clip-path="url(#clip0_535_8722)">
<path d="M18.0009 8C15.2851 8 14.9442 8.01187 13.8776 8.06042C12.813 8.10916 12.0863 8.27771 11.4504 8.52501C10.7927 8.78042 10.2348 9.12208 9.67898 9.67812C9.12273 10.234 8.78105 10.7919 8.5248 11.4494C8.27687 12.0854 8.10812 12.8123 8.06021 13.8765C8.0125 14.9431 8 15.2842 8 18C8 20.7158 8.01209 21.0556 8.06041 22.1223C8.10938 23.1869 8.27792 23.9135 8.525 24.5494C8.78063 25.2071 9.1223 25.765 9.67835 26.3208C10.234 26.8771 10.7919 27.2196 11.4492 27.475C12.0855 27.7223 12.8123 27.8908 13.8767 27.9396C14.9434 27.9881 15.284 28 17.9997 28C20.7158 28 21.0556 27.9881 22.1222 27.9396C23.1868 27.8908 23.9143 27.7223 24.5506 27.475C25.2081 27.2196 25.7652 26.8771 26.3208 26.3208C26.8771 25.765 27.2188 25.2071 27.475 24.5496C27.7208 23.9135 27.8896 23.1867 27.9396 22.1225C27.9875 21.0558 28 20.7158 28 18C28 15.2842 27.9875 14.9433 27.9396 13.8767C27.8896 12.8121 27.7208 12.0854 27.475 11.4496C27.2188 10.7919 26.8771 10.234 26.3208 9.67812C25.7646 9.12187 25.2083 8.78021 24.55 8.525C23.9125 8.27771 23.1854 8.10916 22.1208 8.06042C21.0541 8.01187 20.7145 8 17.9978 8H18.0009ZM17.1038 9.80209C17.3701 9.80167 17.6672 9.80209 18.0009 9.80209C20.671 9.80209 20.9874 9.81167 22.0418 9.85958C23.0168 9.90417 23.546 10.0671 23.8985 10.204C24.3652 10.3852 24.6979 10.6019 25.0477 10.9519C25.3977 11.3019 25.6143 11.6352 25.796 12.1019C25.9329 12.454 26.096 12.9831 26.1404 13.9581C26.1883 15.0123 26.1987 15.329 26.1987 17.9977C26.1987 20.6665 26.1883 20.9831 26.1404 22.0373C26.0958 23.0123 25.9329 23.5415 25.796 23.8935C25.6148 24.3602 25.3977 24.6925 25.0477 25.0423C24.6977 25.3923 24.3654 25.609 23.8985 25.7902C23.5464 25.9277 23.0168 26.0902 22.0418 26.1348C20.9876 26.1827 20.671 26.1931 18.0009 26.1931C15.3307 26.1931 15.0142 26.1827 13.9601 26.1348C12.9851 26.0898 12.4559 25.9269 12.1032 25.79C11.6365 25.6088 11.3032 25.3921 10.9532 25.0421C10.6032 24.6921 10.3865 24.3596 10.2048 23.8927C10.0679 23.5406 9.90481 23.0115 9.86044 22.0365C9.81252 20.9823 9.80293 20.6656 9.80293 17.9952C9.80293 15.3248 9.81252 15.0098 9.86044 13.9556C9.90502 12.9806 10.0679 12.4515 10.2048 12.099C10.3861 11.6323 10.6032 11.299 10.9532 10.949C11.3032 10.599 11.6365 10.3823 12.1032 10.2006C12.4557 10.0631 12.9851 9.90063 13.9601 9.85583C14.8826 9.81416 15.2401 9.80167 17.1038 9.79957L17.1038 9.80209ZM23.3389 11.4625C22.6764 11.4625 22.1389 11.9994 22.1389 12.6621C22.1389 13.3246 22.6764 13.8621 23.3389 13.8621C24.0014 13.8621 24.5389 13.3246 24.5389 12.6621C24.5389 11.9996 24.0014 11.4621 23.3389 11.4621L23.3389 11.4625ZM18.0009 12.8646C15.1649 12.8646 12.8655 15.164 12.8655 18C12.8655 20.836 15.1649 23.1344 18.0009 23.1344C20.837 23.1344 23.1356 20.836 23.1356 18C23.1356 15.164 20.8368 12.8646 18.0007 12.8646H18.0009ZM18.0009 14.6667C19.8418 14.6667 21.3343 16.159 21.3343 18C21.3343 19.8408 19.8418 21.3333 18.0009 21.3333C16.1599 21.3333 14.6676 19.8408 14.6676 18C14.6676 16.159 16.1599 14.6667 18.0009 14.6667Z" fill="white"/>
</g>
<defs>
<clipPath id="clip0_535_8722">
<rect width="20" height="20" fill="white" transform="translate(8 8)"/>
</clipPath>
</defs>
</svg>
