<svg width="48" height="48" viewBox="0 0 48 48" fill="none" xmlns="http://www.w3.org/2000/svg">
<path d="M0 16C0 7.16344 7.16344 0 16 0H32C40.8366 0 48 7.16344 48 16V32C48 40.8366 40.8366 48 32 48H16C7.16344 48 0 40.8366 0 32V16Z" fill="#F4F5F0"/>
<path d="M24.3584 19.2852C25.2482 19.2852 26.9414 18.0571 28.6875 18.2402C29.5061 18.2658 30.3079 18.4816 31.0283 18.8711C31.7488 19.2606 32.3681 19.8135 32.8379 20.4844C32.0986 20.939 31.486 21.5734 31.0576 22.3281C30.6293 23.0829 30.3989 23.9339 30.3877 24.8018C30.3888 25.778 30.677 26.7324 31.2168 27.5459C31.7566 28.3594 32.5246 28.9957 33.4238 29.376C33.0703 30.5243 32.5371 31.6099 31.8447 32.5918C30.9147 33.983 29.9392 35.3429 28.3916 35.3682C26.8877 35.4029 26.3821 34.4825 24.6572 34.4824C22.9161 34.4824 22.377 35.3425 20.9346 35.4023C19.4607 35.4567 18.3339 33.9172 17.3701 32.5391C15.4438 29.7244 13.9441 24.6068 15.9551 21.125C16.4194 20.2909 17.0922 19.5908 17.9072 19.0938C18.7223 18.5968 19.6523 18.3199 20.6064 18.2891C22.0815 18.2587 23.4513 19.2848 24.3584 19.2852ZM28.7051 13C28.8058 14.3147 28.3898 15.6168 27.5459 16.6299C27.1418 17.1325 26.6289 17.5368 26.0459 17.8125C25.4629 18.0881 24.8245 18.2283 24.1797 18.2217C24.1385 17.5896 24.2228 16.9552 24.4268 16.3555C24.6308 15.7557 24.951 15.2015 25.3691 14.7256C26.2244 13.7514 27.4158 13.1354 28.7051 13Z" fill="black"/>
</svg>
