<svg width="114" height="114" viewBox="0 0 114 114" fill="none" xmlns="http://www.w3.org/2000/svg">
<rect x="0.113281" y="0.664062" width="113.554" height="113.002" rx="32.8804" fill="#FFF066"/>
<path d="M50.0152 57.5562C50.0152 54.6085 49.2699 52.3749 47.7791 50.8553C46.2884 49.3357 43.6797 48.5759 39.9529 48.5759C36.0727 48.5759 33.0145 49.4913 30.7784 51.3222C29.0466 52.7319 27.9833 54.4529 27.5887 56.4852V73.4296H13.6133V41.2434H27.5887V45.2255C27.5887 45.4085 27.5449 45.5459 27.4572 45.6374L24.6621 48.4386L24.9581 48.7407C25.7253 47.8619 26.6241 46.9922 27.6545 46.1317C31.732 42.6897 37.092 40.9688 43.7345 40.9688C50.7496 40.9688 55.8794 42.2412 59.1239 44.7861C60.0008 45.4818 60.7571 46.2599 61.3929 47.1204C61.7436 46.8275 62.1273 46.5345 62.5438 46.2416C67.4105 42.7264 73.2967 40.9688 80.2022 40.9688C87.1296 40.9688 92.1937 42.2412 95.3943 44.7861C98.595 47.3309 100.195 51.1482 100.195 56.238V73.4296H86.187V57.5562C86.187 54.6085 85.4635 52.3749 84.0167 50.8553C82.5917 49.3357 80.0487 48.5759 76.3877 48.5759C72.2882 48.5759 69.1753 49.4913 67.0488 51.3222C65.3389 52.8052 64.3195 54.6085 63.9907 56.7323V73.4296H50.0152V57.5562Z" fill="black"/>
</svg>
