<svg width="48" height="48" viewBox="0 0 48 48" fill="none" xmlns="http://www.w3.org/2000/svg">
<path d="M0 16C0 7.16344 7.16344 0 16 0H32C40.8366 0 48 7.16344 48 16V32C48 40.8366 40.8366 48 32 48H16C7.16344 48 0 40.8366 0 32V16Z" fill="#F4F5F0"/>
<path d="M15.4204 12.9609L25.8154 23.2809L28.6654 20.4309L16.0654 13.1559C15.8554 13.0341 15.6304 12.9666 15.4204 12.9609ZM14.5504 13.4409C14.4566 13.6078 14.4004 13.8047 14.4004 14.0259V34.0809C14.4004 34.2422 14.4341 34.3866 14.4904 34.5159L25.1254 23.9559L14.5504 13.4409ZM29.5354 20.9259L26.4904 23.9559L29.5354 26.9709L33.2554 24.8409C33.7841 24.5353 33.8591 24.1472 33.8554 23.9409C33.8498 23.5997 33.6341 23.2809 33.2704 23.0859C32.9535 22.9153 30.6004 21.5447 29.5354 20.9259ZM25.8154 24.6309L15.3304 35.0259C15.5048 35.0166 15.6941 34.9791 15.8704 34.8759C16.281 34.6378 24.5854 29.8359 24.5854 29.8359L28.6804 27.4809L25.8154 24.6309Z" fill="black"/>
</svg>
